# xmcd
#
# Track frame offsets:
#	150
#	11275
#	34004
#	54635
#	74031
#	92793
#	105330
#	123668
#	144211
#	155391
#	173606
#	187254
#	203688
#	221074
#	235586
#	259884
#	276777
#	287516
#	305079
#
# Disc length: 4397 seconds
#
# Revision: 3
# Processed by: cddbd v1.5.2PL0 Copyright (c) Steve Scherf et al.
# Submitted via: EZCDAudioConverter 4.0.5.1
#
DISCID=12112b13
DTITLE=Chitãozinho and Xororó - Irmão Coragem - 30 anos ao vivo
DYEAR=2000
DGENRE=Sertanejo
TTITLE0=Irmãos Coragem
TTITLE1=Medley de Viola- Obras de poeta (Os Passarinhos) - Fogão de lenha - No
TTITLE1=rancho fundo
TTITLE2=Um dois três
TTITLE3=Meu Disfarce
TTITLE4=Deslizes
TTITLE5=Rebola
TTITLE6=Medley Polcas - Galopeira - Vá pro inferno com seu amor
TTITLE7=Me deixa ficar
TTITLE8=Medley Chamamé - 60 dias apaixonado - Sorriso mudo
TTITLE9=Solidão
TTITLE10=Fio de cabelo
TTITLE11=O amor é lindo
TTITLE12=Medley Country - Bailão de peão - Na aba do meu chapéu
TTITLE13=Som da viola
TTITLE14=Evidências
TTITLE15=Coração sertanejo
TTITLE16=Alô
TTITLE17=Se Deus Me Ouvisse
TTITLE18=Corpo e alma
EXTD=
EXTT0=
EXTT1=
EXTT2=
EXTT3=
EXTT4=
EXTT5=
EXTT6=
EXTT7=
EXTT8=
EXTT9=
EXTT10=
EXTT11=
EXTT12=
EXTT13=
EXTT14=
EXTT15=
EXTT16=
EXTT17=
EXTT18=
PLAYORDER=
